<svg id="logo" xmlns="http://www.w3.org/2000/svg" xmlns:xlink="http://www.w3.org/1999/xlink" width="48" height="48.001" viewBox="0 0 48 48.001">
  <defs>
    <linearGradient id="linear-gradient" x1="0.5" y1="1.1" x2="0.5" gradientUnits="objectBoundingBox">
      <stop offset="0" stop-color="#720094"/>
      <stop offset="0.08" stop-color="#64028c"/>
      <stop offset="0.26" stop-color="#4b057e"/>
      <stop offset="0.41" stop-color="#3b0676"/>
      <stop offset="0.54" stop-color="#360773"/>
      <stop offset="0.7" stop-color="#290761"/>
      <stop offset="1" stop-color="#0b0838"/>
    </linearGradient>
    <linearGradient id="linear-gradient-2" x1="0.5" y1="1" x2="0.5" y2="-0.127" xlink:href="#linear-gradient"/>
    <linearGradient id="linear-gradient-3" x1="0.5" y1="1.1" x2="0.5" y2="0" xlink:href="#linear-gradient"/>
    <linearGradient id="linear-gradient-4" x1="0.5" x2="0.5" y2="1" gradientUnits="objectBoundingBox">
      <stop offset="0" stop-color="#bfffff"/>
      <stop offset="0.11" stop-color="#bdfafd"/>
      <stop offset="0.25" stop-color="#b6eaf8"/>
      <stop offset="0.4" stop-color="#aad0f0"/>
      <stop offset="0.57" stop-color="#9aace4"/>
      <stop offset="0.75" stop-color="#857dd4"/>
      <stop offset="0.93" stop-color="#6c45c2"/>
      <stop offset="1" stop-color="#612dba"/>
    </linearGradient>
    <linearGradient id="linear-gradient-5" x1="0.5" x2="0.5" y2="1" gradientUnits="objectBoundingBox">
      <stop offset="0" stop-color="#bfffff"/>
      <stop offset="0.19" stop-color="#a6c7ed"/>
      <stop offset="0.39" stop-color="#8e91db"/>
      <stop offset="0.58" stop-color="#7a66cd"/>
      <stop offset="0.75" stop-color="#6c47c2"/>
      <stop offset="0.9" stop-color="#6434bc"/>
      <stop offset="1" stop-color="#612dba"/>
    </linearGradient>
  </defs>
  <path id="Path_1" data-name="Path 1" d="M440.333,18.2a2.7,2.7,0,0,1-.351,1.316l9.3,15.909q.221-.019.444-.019a4.451,4.451,0,0,1,3.812,1.975,3.321,3.321,0,0,1-.216,3.844l10.368,17.746a5.7,5.7,0,0,0,.443-2.2V22.4c0-3.583-3.352-6.487-7.487-6.487h-17.5A2.886,2.886,0,0,1,440.333,18.2Z" transform="translate(-416.129 -15.91)" fill="url(#linear-gradient)"/>
  <path id="Path_2" data-name="Path 2" d="M96.872,121.268a3.717,3.717,0,0,1,.7-2.174l-7.9-15.664c-.06,0-.126.01-.19.01s-.132-.006-.2-.01l-7.894,15.658a3.722,3.722,0,0,1-2.452,5.861l-9.8,19.424a6.386,6.386,0,0,0,3.293.909h34.1a6.382,6.382,0,0,0,3.284-.9l-9.8-19.431A3.721,3.721,0,0,1,96.872,121.268Z" transform="translate(-65.483 -97.283)" fill="url(#linear-gradient-2)"/>
  <path id="Path_3" data-name="Path 3" d="M27.166,39.17a4.061,4.061,0,0,1,4.317-3.742c.145,0,.291.006.436.019l9.3-15.914a2.765,2.765,0,0,1,.85-3.594h-17.5c-4.134,0-7.485,2.9-7.487,6.485V56.79a5.7,5.7,0,0,0,.438,2.191L27.885,41.236A3.378,3.378,0,0,1,27.166,39.17Z" transform="translate(-17.08 -15.938)" fill="url(#linear-gradient-3)"/>
  <path id="Path_4" data-name="Path 4" d="M70.333,58.854,61.341,41.5a3.782,3.782,0,0,0-3.148-5.883,3.863,3.863,0,0,0-.388.02L49.653,19.552a3.068,3.068,0,0,0-.739-3.642H44.832a3.071,3.071,0,0,0-.745,3.637L35.935,35.639a3.728,3.728,0,0,0-.382-.02A3.782,3.782,0,0,0,32.4,41.492L23.349,58.854a9.243,9.243,0,0,0,3.294,4.127l9.688-19.412a3.945,3.945,0,0,0,3.042-2.262,3.837,3.837,0,0,0-.542-3.7l7.863-15.524c.067,0,.107,0,.175,0s.148,0,.213,0l7.773,15.53a3.661,3.661,0,0,0-.415,3.61,3.874,3.874,0,0,0,2.93,2.332l9.81,19.421A8.972,8.972,0,0,0,70.333,58.854Z" transform="translate(-22.872 -15.91)" fill="url(#linear-gradient-4)"/>
  <path id="Path_5" data-name="Path 5" d="M342.731,454.416a5.169,5.169,0,1,0-7.844,4.418v14.6h5.349v-14.6A5.161,5.161,0,0,0,342.731,454.416Z" transform="translate(-313.561 -425.437)" fill="url(#linear-gradient-5)"/>
</svg>
