<svg xmlns="http://www.w3.org/2000/svg" xmlns:xlink="http://www.w3.org/1999/xlink" width="51.373" height="13.34" viewBox="0 0 51.373 13.34">
  <defs>
    <linearGradient id="linear-gradient" x1="1.641" y1="0.094" x2="-0.641" y2="0.906" gradientUnits="objectBoundingBox">
      <stop offset="0" stop-color="#bfffff"/>
      <stop offset="0.48" stop-color="#9678c6"/>
      <stop offset="0.81" stop-color="#7c22a2"/>
      <stop offset="0.96" stop-color="#720094"/>
    </linearGradient>
    <linearGradient id="linear-gradient-2" x1="0.803" y1="0.068" x2="0.004" y2="0.973" xlink:href="#linear-gradient"/>
    <linearGradient id="linear-gradient-3" x1="0.779" y1="0.07" x2="0.224" y2="0.931" xlink:href="#linear-gradient"/>
    <linearGradient id="linear-gradient-4" x1="0.891" y1="-0.028" x2="0.117" y2="1.035" xlink:href="#linear-gradient"/>
    <linearGradient id="linear-gradient-5" x1="0.915" y1="0.157" x2="0.266" y2="1.113" xlink:href="#linear-gradient"/>
  </defs>
  <g id="typo_logo" data-name="typo logo" transform="translate(-17.772 -126.335)">
    <rect id="Rectangle_22" data-name="Rectangle 22" width="2.657" height="12.953" rx="1.329" transform="translate(30.967 126.72)" fill="url(#linear-gradient)"/>
    <path id="Path_6" data-name="Path 6" d="M308.486,836.314a.557.557,0,0,1-.031-.8,3.112,3.112,0,0,0,.823-2.109,3.024,3.024,0,0,0-1.192-2.527,5.433,5.433,0,0,0-3.6-.985,15.422,15.422,0,0,0-2.9.258h0a.565.565,0,0,0-.45.553v11.629a.567.567,0,0,0,.488.561h0a18.367,18.367,0,0,0,2.445.145c2.114,0,3.534-.4,4.482-1.264a3.735,3.735,0,0,0,1.17-2.776A3.4,3.4,0,0,0,308.486,836.314Zm-4.7-3.551a.564.564,0,0,1,.55-.566h.236c2.03,0,2.03.991,2.03,1.364,0,.874-.764,1.416-1.994,1.416h-.255a.566.566,0,0,1-.566-.565Zm.715,7.948h-.154a.565.565,0,0,1-.561-.565V837.83a.566.566,0,0,1,.566-.565h.134c.929,0,2.487.223,2.487,1.715C306.971,840.411,305.629,840.711,304.5,840.711Z" transform="translate(-264.581 -703.362)" fill="url(#linear-gradient-2)"/>
    <path id="Path_7" data-name="Path 7" d="M462.3,827c-3.565,0-6.056,2.786-6.056,6.774,0,3.866,2.418,6.565,5.881,6.565,3.014,0,6.056-2.1,6.056-6.792C468.176,829.691,465.758,827,462.3,827Zm-.088,10.962c-2.2,0-3.205-2.188-3.205-4.223,0-2.172,1-4.363,3.223-4.363,2.2,0,3.206,2.2,3.206,4.241,0,2.162-1,4.344-3.223,4.344Z" transform="translate(-409.314 -700.665)" fill="url(#linear-gradient-3)"/>
    <path id="Path_8" data-name="Path 8" d="M644.5,832.76h-1.755a.566.566,0,0,0-.489.281l-1.61,2.772-.128.221a.565.565,0,0,1-.981,0c-.039-.067-.078-.139-.12-.211l-1.56-2.772a.565.565,0,0,0-.493-.288h-1.776a.565.565,0,0,0-.486.854l3.126,5.259a.567.567,0,0,1,0,.581l-3.263,5.4a.565.565,0,0,0,.484.858H637.2a.566.566,0,0,0,.5-.293l1.4-2.58c.134-.225.253-.43.363-.621a.565.565,0,0,1,.975-.011c.116.193.24.394.371.609l1.509,2.614a.566.566,0,0,0,.49.282h1.771a.565.565,0,0,0,.484-.859l-3.322-5.473a.567.567,0,0,1,0-.593l3.227-5.163a.565.565,0,0,0-.479-.866Z" transform="translate(-576.005 -706.04)" fill="url(#linear-gradient-4)"/>
    <path id="Path_9" data-name="Path 9" d="M30.727,842.832l-3.306-9.689a.566.566,0,0,0-.535-.383H25.043a.566.566,0,0,0-.535.383l-4.014,11.823a.566.566,0,0,0,.535.747h1.576a.566.566,0,0,0,.535-.388l.937-2.841.864-2.813h-.007l.074-.217h0l.835-2.467c.026-.082.052-.165.078-.25.03.092.061.185.093.278l.909,2.655h0l.954,3.057.035.1.848,2.5a.565.565,0,0,0,.535.383h1.632a.565.565,0,0,0,.535-.748Z" transform="translate(-2.692 -706.04)" fill="url(#linear-gradient-5)"/>
  </g>
</svg>
