<svg xmlns="http://www.w3.org/2000/svg" width="737.504" height="530.096" viewBox="0 0 737.504 530.096">
  <g id="Login-svgs" transform="translate(0 -55)">
    <g id="freepik--background-complete--inject-2" transform="translate(0 55)">
      <rect id="Rectangle_25" data-name="Rectangle 25" width="737.504" height="0.341" transform="translate(0 468.484)" fill="#ebebeb"/>
      <rect id="Rectangle_26" data-name="Rectangle 26" width="29.578" height="0.341" transform="translate(639.573 490.436)" fill="#ebebeb"/>
      <rect id="Rectangle_27" data-name="Rectangle 27" width="46.537" height="0.341" transform="translate(460.595 483.368)" fill="#ebebeb"/>
      <rect id="Rectangle_28" data-name="Rectangle 28" width="60.753" height="0.341" transform="translate(596.42 477.775)" fill="#ebebeb"/>
      <rect id="Rectangle_29" data-name="Rectangle 29" width="15.199" height="0.341" transform="translate(239.183 484.651)" fill="#ebebeb"/>
      <rect id="Rectangle_30" data-name="Rectangle 30" width="52.376" height="0.341" transform="translate(170.061 484.651)" fill="#ebebeb"/>
      <rect id="Rectangle_31" data-name="Rectangle 31" width="37.792" height="0.341" transform="translate(90.468 478.893)" fill="#ebebeb"/>
      <path id="Path_4" data-name="Path 4" d="M309.423,440.829H45.987a7.79,7.79,0,0,1-7.777-7.79V62.722A7.79,7.79,0,0,1,45.987,55H309.423a7.79,7.79,0,0,1,7.79,7.79V433.039A7.79,7.79,0,0,1,309.423,440.829ZM45.987,55.273a7.449,7.449,0,0,0-7.436,7.449V433.039a7.449,7.449,0,0,0,7.436,7.449H309.423a7.463,7.463,0,0,0,7.449-7.449V62.722a7.463,7.463,0,0,0-7.449-7.449Z" transform="translate(13.921 -55)" fill="#ebebeb"/>
      <path id="Path_5" data-name="Path 5" d="M525.74,440.829H262.29a7.8,7.8,0,0,1-7.79-7.79V62.722A7.8,7.8,0,0,1,262.29,55H525.74a7.79,7.79,0,0,1,7.763,7.722V433.039A7.79,7.79,0,0,1,525.74,440.829ZM262.29,55.273a7.463,7.463,0,0,0-7.449,7.449V433.039a7.463,7.463,0,0,0,7.449,7.449H525.74a7.463,7.463,0,0,0,7.449-7.449V62.722a7.463,7.463,0,0,0-7.449-7.449Z" transform="translate(148.063 -55)" fill="#ebebeb"/>
      <path id="Path_6" data-name="Path 6" d="M115.936,189.866a28.528,28.528,0,0,0,0-57.056H112.43v57.056Z" transform="translate(54.018 -21.033)" fill="#e0e0e0"/>
      <circle id="Ellipse_7" data-name="Ellipse 7" cx="28.528" cy="28.528" r="28.528" transform="translate(135.888 111.777)" fill="#f5f5f5"/>
      <path id="Path_7" data-name="Path 7" d="M121.651,173.587a38.2,38.2,0,0,1-38.2-38.2v-22.8a3.588,3.588,0,1,1,7.176,0V135.4a31.052,31.052,0,0,0,31.011,31.025,3.588,3.588,0,1,1,0,7.163Z" transform="translate(40.245 -31.354)" fill="#e0e0e0"/>
      <path id="Path_8" data-name="Path 8" d="M64.589,135.447h63.468a6.631,6.631,0,0,0,6.412-8.322l-5.525-20.806a6.631,6.631,0,0,0-6.4-4.939H70.1a6.644,6.644,0,0,0-6.412,4.939L58.232,127.1a6.617,6.617,0,0,0,6.358,8.35Z" transform="translate(21.131 -38.103)" fill="#f5f5f5"/>
      <path id="Path_9" data-name="Path 9" d="M411.216,189.866a28.528,28.528,0,1,0,0-57.056H407.71v57.056Z" transform="translate(203.881 -21.033)" fill="#e0e0e0"/>
      <circle id="Ellipse_8" data-name="Ellipse 8" cx="28.528" cy="28.528" r="28.528" transform="translate(583.063 111.777)" fill="#f5f5f5"/>
      <path id="Path_10" data-name="Path 10" d="M416.951,173.587a38.2,38.2,0,0,1-38.2-38.2v-22.8a3.588,3.588,0,1,1,7.176,0V135.4a31.052,31.052,0,0,0,31.011,31.025,3.588,3.588,0,1,1,0,7.163Z" transform="translate(182.659 -31.354)" fill="#e0e0e0"/>
      <path id="Path_11" data-name="Path 11" d="M359.887,135.44h63.468a6.631,6.631,0,0,0,6.412-8.322l-5.457-20.779a6.631,6.631,0,0,0-6.4-4.939H365.4a6.644,6.644,0,0,0-6.412,4.939l-5.457,20.779a6.617,6.617,0,0,0,6.358,8.322Z" transform="translate(172.776 -38.096)" fill="#f5f5f5"/>
      <rect id="Rectangle_32" data-name="Rectangle 32" width="20.751" height="80.399" transform="translate(218.838 371.357) rotate(180)" fill="#e6e6e6"/>
      <path id="Path_12" data-name="Path 12" d="M92.75,340.977h68.857l10.4-94.1H103.146Z" transform="translate(45.406 30.133)" fill="#f0f0f0"/>
      <path id="Path_13" data-name="Path 13" d="M87.28,340.977h71.136l10.4-94.1H97.69Z" transform="translate(42.77 30.133)" fill="#f5f5f5"/>
      <path id="Path_14" data-name="Path 14" d="M151.461,331.587l8.759-79.267H101.009L92.25,331.587Z" transform="translate(44.949 31.951)" fill="#fff"/>
      <path id="Path_15" data-name="Path 15" d="M133.778,307.223l.423-3.179c2.2-19.892-10.219-37.614-26.345-37.614h0l-.368,3.233c-2.2,19.878,10.219,37.6,26.359,37.6Z" transform="translate(51.431 36.72)" fill="#f5f5f5"/>
      <rect id="Rectangle_33" data-name="Rectangle 33" width="61.176" height="90.795" transform="translate(141.794 468.484) rotate(180)" fill="#e6e6e6"/>
      <path id="Path_16" data-name="Path 16" d="M65.233,387.074H59.08v-17.5H71.686Z" transform="translate(21.524 81.41)" fill="#f0f0f0"/>
      <rect id="Rectangle_34" data-name="Rectangle 34" width="61.176" height="90.795" transform="translate(335.713 468.484) rotate(180)" fill="#e6e6e6"/>
      <rect id="Rectangle_35" data-name="Rectangle 35" width="176.829" height="80.045" transform="translate(257.433 457.747) rotate(180)" fill="#f0f0f0"/>
      <path id="Path_17" data-name="Path 17" d="M185.9,387.074h6.153v-17.5H179.45Z" transform="translate(85.614 81.41)" fill="#f0f0f0"/>
      <rect id="Rectangle_36" data-name="Rectangle 36" width="167.279" height="32.307" transform="translate(252.658 411.218) rotate(180)" fill="#e6e6e6"/>
      <path id="Path_18" data-name="Path 18" d="M122.552,337.944h22.307A35.254,35.254,0,0,0,170.48,326.92H96.93A35.3,35.3,0,0,0,122.552,337.944Z" transform="translate(47.339 61.731)" fill="#f0f0f0"/>
      <rect id="Rectangle_37" data-name="Rectangle 37" width="167.279" height="32.307" transform="translate(252.658 452.521) rotate(180)" fill="#e6e6e6"/>
      <path id="Path_19" data-name="Path 19" d="M122.552,365.4h22.307A35.254,35.254,0,0,0,170.48,354.38H96.93A35.3,35.3,0,0,0,122.552,365.4Z" transform="translate(47.339 75.876)" fill="#f0f0f0"/>
      <path id="Path_20" data-name="Path 20" d="M181.036,330.988h1.583c0-3.261,0-11.515.164-30.438.287-34.313.832-36.4.832-36.4l-3.766,15.84C177.462,297.521,180.545,315.148,181.036,330.988Z" transform="translate(85.14 36.67)" fill="#e6e6e6"/>
      <path id="Path_21" data-name="Path 21" d="M186.1,276.663c-5.457-6.453-16.986-8.336-28.828-9.946-4.652-.628,12.211,10,20.465,17.545,6.412,5.867,10.505,7.49,12.279,13.329C190.917,290.306,190.767,282.27,186.1,276.663Z" transform="translate(75.235 36.499)" fill="#e6e6e6"/>
      <path id="Path_22" data-name="Path 22" d="M184.624,285.139c5.457-6.453,16.986-8.322,28.828-9.932,4.652-.628-12.279,10-20.465,17.545-6.412,5.867-10.505,7.49-12.279,13.329C179.808,298.8,179.9,290.706,184.624,285.139Z" transform="translate(86.673 40.169)" fill="#e6e6e6"/>
      <path id="Path_23" data-name="Path 23" d="M182.508,267.751c4.093-7.722,14.271-15.007,25.745-17.736,4.5-1.078-10.437,14.243-16.113,24.135-4.407,7.667-10.246,16.7-11.16,23.193C179.616,284.545,178.443,275.514,182.508,267.751Z" transform="translate(86.257 29.785)" fill="#e6e6e6"/>
      <path id="Path_24" data-name="Path 24" d="M184.049,318.739h0c-4.83,0-8.827-2.415-9.114-5.525l-.8-5.294h19.851l-.819,5.294C192.889,316.324,188.96,318.739,184.049,318.739Z" transform="translate(83.291 53.567)" fill="#f0f0f0"/>
      <path id="Path_25" data-name="Path 25" d="M195.777,310.988H173.361l-.641-5.908h23.7Z" transform="translate(82.731 52.176)" fill="#f0f0f0"/>
      <rect id="Rectangle_38" data-name="Rectangle 38" width="218.578" height="199.368" transform="translate(477.499 234.281) rotate(180)" fill="#e6e6e6"/>
      <rect id="Rectangle_39" data-name="Rectangle 39" width="221.347" height="199.368" transform="translate(474.933 234.281) rotate(180)" fill="#f5f5f5"/>
      <rect id="Rectangle_40" data-name="Rectangle 40" width="181.509" height="203.693" transform="translate(466.108 43.849) rotate(90)" fill="#fafafa"/>
      <path id="Path_26" data-name="Path 26" d="M332.069,268.649,251.9,87.14H224.67l80.167,181.509Z" transform="translate(111.367 -43.291)" fill="#fff"/>
      <path id="Path_27" data-name="Path 27" d="M304.183,268.649,224.016,87.14H205.27l80.167,181.509Z" transform="translate(101.358 -43.291)" fill="#fff"/>
      <rect id="Rectangle_41" data-name="Rectangle 41" width="181.509" height="10.533" transform="translate(335.593 43.836) rotate(90)" fill="#e6e6e6"/>
      <rect id="Rectangle_42" data-name="Rectangle 42" width="181.509" height="10.533" transform="translate(411.38 43.836) rotate(90)" fill="#e6e6e6"/>
      <rect id="Rectangle_43" data-name="Rectangle 43" width="193.815" height="13.316" transform="translate(333.413 37.205) rotate(90)" fill="#f5f5f5"/>
      <rect id="Rectangle_44" data-name="Rectangle 44" width="193.815" height="13.316" transform="translate(409.223 37.205) rotate(90)" fill="#f5f5f5"/>
      <rect id="Rectangle_45" data-name="Rectangle 45" width="181.509" height="0.941" transform="translate(255.274 43.849) rotate(90)" fill="#e6e6e6"/>
      <path id="Path_28" data-name="Path 28" d="M163.526,72.17H400.317a1.16,1.16,0,0,1,1.146,1.146h0a1.146,1.146,0,0,1-1.146,1.132H163.526a1.146,1.146,0,0,1-1.146-1.132h0a1.16,1.16,0,0,1,1.146-1.146Z" transform="translate(86.83 -48.745)" fill="#e6e6e6"/>
      <path id="Path_29" data-name="Path 29" d="M330.162,79.385h0a1.542,1.542,0,0,0,1.528-1.542v-3.3A1.528,1.528,0,0,0,330.162,73h0a1.542,1.542,0,0,0-1.542,1.528v3.3a1.555,1.555,0,0,0,1.542,1.555Z" transform="translate(156.261 -48.442)" fill="#e6e6e6"/>
      <path id="Path_30" data-name="Path 30" d="M176.208,79.385h0a1.555,1.555,0,0,0,1.542-1.542v-3.3A1.542,1.542,0,0,0,176.208,73h0a1.528,1.528,0,0,0-1.528,1.528v3.3A1.542,1.542,0,0,0,176.208,79.385Z" transform="translate(83.062 -48.442)" fill="#e6e6e6"/>
      <rect id="Rectangle_46" data-name="Rectangle 46" width="221.197" height="156.133" transform="translate(471.015 180.69) rotate(180)" fill="#e0e0e0" opacity="0.6"/>
      <rect id="Rectangle_47" data-name="Rectangle 47" width="52.826" height="32.334" rx="5.38" transform="translate(455.606 293.61)" fill="#fafafa"/>
      <rect id="Rectangle_48" data-name="Rectangle 48" width="52.826" height="6.931" rx="1.81" transform="translate(455.606 286.584)" fill="#e6e6e6"/>
      <path id="Path_31" data-name="Path 31" d="M307.52,310s.7,22.743,27.191,22.743S361.9,310,361.9,310Z" transform="translate(149.023 54.902)" fill="#f0f0f0"/>
      <path id="Path_32" data-name="Path 32" d="M351.8,310s.7,22.743,27.191,22.743S406.182,310,406.182,310Z" transform="translate(170.481 54.902)" fill="#f0f0f0"/>
      <rect id="Rectangle_49" data-name="Rectangle 49" width="72.582" height="46.987" rx="7.4" transform="translate(500.388 278.699)" fill="#f0f0f0"/>
      <rect id="Rectangle_50" data-name="Rectangle 50" width="72.582" height="9.523" rx="2.48" transform="translate(500.388 268.98)" fill="#f5f5f5"/>
      <rect id="Rectangle_51" data-name="Rectangle 51" width="6.876" height="112.747" transform="translate(439.221 468.484) rotate(180)" fill="#e6e6e6"/>
      <rect id="Rectangle_52" data-name="Rectangle 52" width="37.232" height="21.938" transform="translate(616.257 327.197)" fill="#e6e6e6"/>
      <rect id="Rectangle_53" data-name="Rectangle 53" width="185.111" height="21.938" transform="translate(602.741 349.149) rotate(180)" fill="#f5f5f5"/>
      <rect id="Rectangle_54" data-name="Rectangle 54" width="37.232" height="21.938" transform="translate(616.257 388.653)" fill="#e6e6e6"/>
      <rect id="Rectangle_55" data-name="Rectangle 55" width="185.111" height="21.938" transform="translate(602.741 410.591) rotate(180)" fill="#f5f5f5"/>
      <rect id="Rectangle_56" data-name="Rectangle 56" width="6.876" height="112.747" transform="translate(646.927 468.484) rotate(180)" fill="#e6e6e6"/>
      <rect id="Rectangle_57" data-name="Rectangle 57" width="6.876" height="112.747" transform="translate(616.257 468.484) rotate(180)" fill="#f5f5f5"/>
      <rect id="Rectangle_58" data-name="Rectangle 58" width="6.876" height="112.747" transform="translate(413.463 468.484) rotate(180)" fill="#f5f5f5"/>
    </g>
    <g id="freepik--Shadow--inject-2" transform="translate(76.552 554.208)">
      <ellipse id="freepik--path--inject-2" cx="292.2" cy="15.444" rx="292.2" ry="15.444" fill="#f5f5f5"/>
    </g>
    <g id="freepik--Login--inject-2" transform="translate(173.12 156.949)">
      <path id="Path_33" data-name="Path 33" d="M313.974,451.778H139.928a11.092,11.092,0,0,1-10.915-10.423L113.405,139.09a9.782,9.782,0,0,1,9.878-10.41H297.329a11.078,11.078,0,0,1,10.915,10.41l15.581,302.265a9.8,9.8,0,0,1-9.85,10.423Z" transform="translate(-113.385 -118.83)" fill="#2955d8"/>
      <path id="Path_34" data-name="Path 34" d="M313.974,451.778H139.928a11.092,11.092,0,0,1-10.915-10.423L113.405,139.09a9.782,9.782,0,0,1,9.878-10.41H297.329a11.078,11.078,0,0,1,10.915,10.41l15.581,302.265a9.8,9.8,0,0,1-9.85,10.423Z" transform="translate(-113.385 -118.83)" fill="#fff" opacity="0.8"/>
      <path id="Path_35" data-name="Path 35" d="M317.128,433.955H150.681a10.6,10.6,0,0,1-10.478-9.946l-14.9-289.1a9.359,9.359,0,0,1,9.455-9.96H301.207a10.6,10.6,0,0,1,10.464,9.96l14.9,289.1a9.346,9.346,0,0,1-9.441,9.946Z" transform="translate(-109.05 -120.189)" fill="#2955d8"/>
      <path id="Path_36" data-name="Path 36" d="M315.355,425.533H148.909a3.984,3.984,0,0,1-3.834-3.656L130.163,132.791a2.721,2.721,0,0,1,2.81-2.961H299.42a3.984,3.984,0,0,1,3.82,3.656l14.98,289.086a2.729,2.729,0,0,1-2.8,2.961ZM132.973,130.172a2.442,2.442,0,0,0-1.828.737,2.51,2.51,0,0,0-.641,1.869l14.9,289.086a3.643,3.643,0,0,0,3.493,3.329H315.342a2.374,2.374,0,0,0,1.815-.737,2.4,2.4,0,0,0,.641-1.869L302.913,133.5a3.629,3.629,0,0,0-3.479-3.329Z" transform="translate(-107.277 -118.411)" fill="#fff"/>
      <ellipse id="Ellipse_9" data-name="Ellipse 9" cx="49.115" cy="51.708" rx="49.115" ry="51.708" transform="translate(41.517 79.781) rotate(-45.74)" fill="#fff" opacity="0.3"/>
      <path id="Path_37" data-name="Path 37" d="M247.793,191.5a39.169,39.169,0,0,1-3.916,19.428,38.3,38.3,0,0,1-34.749,21.352,43.317,43.317,0,0,1-36.946-21.352,41.994,41.994,0,0,1-5.921-19.428,38.324,38.324,0,0,1,38.665-40.766A43.4,43.4,0,0,1,247.793,191.5Z" transform="translate(-94.15 -110.797)" fill="#fff"/>
      <path id="Path_38" data-name="Path 38" d="M242.245,197.765A38.3,38.3,0,0,1,207.5,219.116a43.317,43.317,0,0,1-36.946-21.352,61.613,61.613,0,0,1,35.281-10.915A67.043,67.043,0,0,1,242.245,197.765Z" transform="translate(-92.559 -97.637)" fill="#2955d8"/>
      <ellipse id="Ellipse_10" data-name="Ellipse 10" cx="17.695" cy="18.637" rx="17.695" ry="18.637" transform="translate(86.423 66.412) rotate(-45.74)" fill="#2955d8"/>
      <path id="Path_39" data-name="Path 39" d="M284.662,276.348H154.328a4.489,4.489,0,0,1-4.434-4.216l-.982-19.1a3.957,3.957,0,0,1,4-4.2H283.243a4.489,4.489,0,0,1,4.434,4.2l.982,19.1a3.957,3.957,0,0,1-4,4.216Z" transform="translate(-100.445 -75.057)" fill="#fff"/>
      <path id="Path_40" data-name="Path 40" d="M234.941,244.448H180.5a4.489,4.489,0,0,1-4.448-4.229l-.2-4.093a3.957,3.957,0,0,1,4-4.216h54.423a4.489,4.489,0,0,1,4.434,4.216l.218,4.093a3.984,3.984,0,0,1-3.984,4.229Z" transform="translate(-90.63 -81.221)" opacity="0.3"/>
      <path id="Path_41" data-name="Path 41" d="M257.92,342.656H176.375a7.654,7.654,0,0,1-7.545-7.176l-.478-9.414a6.822,6.822,0,0,1,6.822-7.176h81.518a7.654,7.654,0,0,1,7.545,7.176l.477,9.414a6.822,6.822,0,0,1-6.794,7.176Z" transform="translate(-93.363 -49.532)" opacity="0.3"/>
      <path id="Path_42" data-name="Path 42" d="M286.415,310.212H156.068A4.5,4.5,0,0,1,151.634,306l-.982-19.1a3.97,3.97,0,0,1,4-4.216H284.983a4.489,4.489,0,0,1,4.434,4.216l1,19.1a3.984,3.984,0,0,1-4,4.216Z" transform="translate(-99.811 -62.725)" fill="#fff"/>
      <path id="Path_43" data-name="Path 43" d="M167.494,260.156a4.393,4.393,0,0,1-4.434,4.666,4.966,4.966,0,0,1-4.9-4.666,4.379,4.379,0,0,1,4.42-4.666,4.98,4.98,0,0,1,4.912,4.666Z" transform="translate(-97.075 -72.63)" fill="#263238"/>
      <path id="Path_44" data-name="Path 44" d="M178.021,260.156a4.379,4.379,0,0,1-4.42,4.666,4.952,4.952,0,0,1-4.9-4.666,4.379,4.379,0,0,1,4.42-4.666A4.952,4.952,0,0,1,178.021,260.156Z" transform="translate(-93.235 -72.63)" fill="#263238"/>
      <path id="Path_45" data-name="Path 45" d="M188.494,260.156a4.379,4.379,0,0,1-4.42,4.666,4.98,4.98,0,0,1-4.912-4.666,4.393,4.393,0,0,1,4.434-4.666A4.966,4.966,0,0,1,188.494,260.156Z" transform="translate(-89.424 -72.63)" fill="#263238"/>
      <path id="Path_46" data-name="Path 46" d="M199.044,260.156a4.393,4.393,0,0,1-4.42,4.666,4.98,4.98,0,0,1-4.912-4.666,4.393,4.393,0,0,1,4.42-4.666,4.98,4.98,0,0,1,4.912,4.666Z" transform="translate(-85.581 -72.63)" fill="#263238"/>
      <path id="Path_47" data-name="Path 47" d="M169.264,294a4.379,4.379,0,0,1-4.42,4.666A4.98,4.98,0,0,1,159.932,294a4.393,4.393,0,0,1,4.434-4.666A4.966,4.966,0,0,1,169.264,294Z" transform="translate(-96.43 -60.302)" fill="#263238"/>
      <path id="Path_48" data-name="Path 48" d="M179.774,294a4.393,4.393,0,0,1-4.42,4.666A4.98,4.98,0,0,1,170.442,294a4.379,4.379,0,0,1,4.42-4.666A4.98,4.98,0,0,1,179.774,294Z" transform="translate(-92.602 -60.302)" fill="#263238"/>
      <path id="Path_49" data-name="Path 49" d="M190.284,294a4.393,4.393,0,0,1-4.434,4.666,4.953,4.953,0,0,1-4.9-4.666,4.379,4.379,0,0,1,4.42-4.666A4.98,4.98,0,0,1,190.284,294Z" transform="translate(-88.773 -60.302)" fill="#263238"/>
      <path id="Path_50" data-name="Path 50" d="M200.784,294a4.379,4.379,0,0,1-4.42,4.666A4.98,4.98,0,0,1,191.452,294a4.393,4.393,0,0,1,4.434-4.666,4.953,4.953,0,0,1,4.9,4.666Z" transform="translate(-84.947 -60.302)" fill="#263238"/>
      <path id="Path_51" data-name="Path 51" d="M211.294,294a4.379,4.379,0,0,1-4.42,4.666A4.98,4.98,0,0,1,201.962,294a4.393,4.393,0,0,1,4.42-4.666A4.98,4.98,0,0,1,211.294,294Z" transform="translate(-81.118 -60.302)" fill="#263238"/>
      <path id="Path_52" data-name="Path 52" d="M221.8,294a4.393,4.393,0,0,1-4.434,4.666,4.966,4.966,0,0,1-4.9-4.666,4.379,4.379,0,0,1,4.42-4.666A4.98,4.98,0,0,1,221.8,294Z" transform="translate(-77.289 -60.302)" fill="#263238"/>
    </g>
    <g id="freepik--Character--inject-2" transform="translate(354.135 122.663)">
      <path id="Path_53" data-name="Path 53" d="M336.224,176.62c.341.518.518.791.737,1.16l.614,1.01c.4.682.75,1.364,1.091,2.033.682,1.364,1.364,2.729,1.91,4.093a75.33,75.33,0,0,1,2.947,8.309,87.007,87.007,0,0,1,3.247,17.109l.1,1.078a6.25,6.25,0,0,1,0,.655v.723a17.455,17.455,0,0,1-.164,2.838,23.383,23.383,0,0,1-1.364,5.089,35.214,35.214,0,0,1-4.721,8.186,58.516,58.516,0,0,1-12.7,12.02l-3.766-4.407a78.249,78.249,0,0,0,9.059-12.538,28.65,28.65,0,0,0,2.729-6.44,13.008,13.008,0,0,0,.45-2.92,6.391,6.391,0,0,0,0-1.269v-.287a1.776,1.776,0,0,0,0-.382l-.164-.955a108.135,108.135,0,0,0-3.711-15.007c-.791-2.442-1.76-4.8-2.729-7.108-.478-1.16-1.023-2.292-1.569-3.384l-.846-1.61-.423-.75-.355-.6Z" transform="translate(-202.685 -72.42)" fill="#803e3c"/>
      <path id="Path_54" data-name="Path 54" d="M323.7,225.2l4.939,10.437,3.916-8.827s-3.479-7.64-8.186-6.931Z" transform="translate(-202.849 -54.239)" fill="#7f3e3b"/>
      <path id="Path_55" data-name="Path 55" d="M330.854,234.3l3.929-6.44-3.547-2.906-3.916,8.827Z" transform="translate(-201.53 -52.14)" fill="#7f3e3b"/>
      <path id="Path_56" data-name="Path 56" d="M314.335,408.994a14.008,14.008,0,0,0,3.029-.409.3.3,0,0,0,.2-.218.273.273,0,0,0-.123-.273c-.4-.259-3.861-2.5-5.2-1.9a.928.928,0,0,0-.532.764,1.542,1.542,0,0,0,.45,1.364,3.233,3.233,0,0,0,2.169.669Zm2.251-.8c-1.978.409-3.479.341-4.093-.191a1.051,1.051,0,0,1-.287-.969.331.331,0,0,1,.232-.341C313.175,406.361,315.181,407.33,316.586,408.189Z" transform="translate(-207.222 27.053)" fill="#2955d8"/>
      <path id="Path_57" data-name="Path 57" d="M316.618,409.293h.136a.3.3,0,0,0,.136-.246c0-.136,0-3.424-1.255-4.53a1.433,1.433,0,0,0-1.146-.355.941.941,0,0,0-.914.75c-.259,1.3,1.815,3.752,2.906,4.379Zm-1.951-4.625a.832.832,0,0,1,.6.232,6.18,6.18,0,0,1,1.064,3.6c-1.091-.873-2.388-2.729-2.224-3.506,0-.123.1-.286.437-.327Z" transform="translate(-206.545 26.345)" fill="#2955d8"/>
      <path id="Path_58" data-name="Path 58" d="M306.046,404.269a.287.287,0,0,0-.191-.464c-.559,0-5.457-.232-6.576.969v.082a.86.86,0,0,0-.123.846,1.514,1.514,0,0,0,1,1c1.583.491,4.379-1.3,5.908-2.4Zm-6.358.86c.614-.655,3.315-.832,5.334-.8-2.115,1.446-3.875,2.128-4.761,1.855a.982.982,0,0,1-.655-.655.368.368,0,0,1,0-.341Z" transform="translate(-211.812 26.212)" fill="#2955d8"/>
      <path id="Path_59" data-name="Path 59" d="M305.685,405.109h0a.314.314,0,0,0,0-.273c-.068-.109-1.6-2.729-3.4-3.274a1.978,1.978,0,0,0-1.555.191c-.655.382-.7.832-.614,1.119.355,1.269,3.834,2.388,5.335,2.374a.273.273,0,0,0,.232-.136Zm-4.9-2.729a1.144,1.144,0,0,1,.259-.191,1.364,1.364,0,0,1,1.146-.15c1.187.314,2.292,1.842,2.8,2.592-1.624-.177-4.093-1.173-4.3-1.937a.314.314,0,0,1,.1-.327Z" transform="translate(-211.451 25.373)" fill="#2955d8"/>
      <path id="Path_60" data-name="Path 60" d="M321.217,147.33c-1.364,6.822-4.311,21.57.423,26.1,0,0-1.855,6.822-14.448,6.822-13.861,0-6.617-6.822-6.617-6.822,7.558-1.8,7.367-7.422,6.044-12.688Z" transform="translate(-211.963 -89.025)" fill="#7f3e3b"/>
      <path id="Path_61" data-name="Path 61" d="M299.363,136.609a.723.723,0,0,0,.232,0,.546.546,0,0,0,.246-.737,5.375,5.375,0,0,0-3.929-3,.559.559,0,0,0-.6.478.546.546,0,0,0,.478.6h0a4.284,4.284,0,0,1,3.083,2.415.546.546,0,0,0,.491.246Z" transform="translate(-213.192 -94.294)" fill="#263238"/>
      <path id="Path_62" data-name="Path 62" d="M296.314,140a24.91,24.91,0,0,1-3.984,5.457,3.97,3.97,0,0,0,3.179,1.01Z" transform="translate(-214.277 -91.696)" fill="#630f0f"/>
      <path id="Path_63" data-name="Path 63" d="M296.584,139.348c-.109.914-.7,1.6-1.282,1.528s-1-.873-.887-1.787.7-1.6,1.364-1.528S296.68,138.434,296.584,139.348Z" transform="translate(-213.524 -92.586)" fill="#263238"/>
      <path id="Path_64" data-name="Path 64" d="M296.1,137.846,294,137S294.887,138.8,296.1,137.846Z" transform="translate(-213.669 -92.789)" fill="#263238"/>
      <path id="Path_65" data-name="Path 65" d="M317.8,409.075l-11.133,2.592L299.9,386.072l11.133-2.592Z" transform="translate(-211.519 18.814)" fill="#7f3e3b"/>
      <path id="Path_66" data-name="Path 66" d="M328.589,414.784H317.17l.887-26.454H329.49Z" transform="translate(-205.228 20.581)" fill="#7f3e3b"/>
      <path id="Path_67" data-name="Path 67" d="M320.9,406.75h12.838a.914.914,0,0,1,.914.791l1.46,10.151a1.828,1.828,0,0,1-1.828,2.033c-4.475-.068-6.631-.341-12.279-.341-3.479,0-8.554.368-13.343.368S303.6,415,305.6,414.581c8.95-1.937,10.369-4.584,13.384-7.122A2.961,2.961,0,0,1,320.9,406.75Z" transform="translate(-209.87 27.292)" fill="#263238"/>
      <path id="Path_68" data-name="Path 68" d="M307.635,404.345l11.665-5.362a.9.9,0,0,1,1.146.327l5.58,8.622a1.842,1.842,0,0,1-.819,2.606c-4.093,1.8-6.167,2.469-11.3,4.83-3.152,1.446-9.55,4.775-13.889,6.822s-6.576-2.2-4.939-3.424c7.326-5.457,9.427-9.373,11.106-12.934A2.92,2.92,0,0,1,307.635,404.345Z" transform="translate(-213.47 24.431)" fill="#263238"/>
      <path id="Path_69" data-name="Path 69" d="M299.9,386.072l3.629,13.725,11-3.124-3.479-13.193Z" transform="translate(-211.519 18.814)" opacity="0.2"/>
      <path id="Path_70" data-name="Path 70" d="M329.373,388.33H317.94l-.45,13.643h11.433Z" transform="translate(-205.111 20.581)" opacity="0.2"/>
      <path id="Path_71" data-name="Path 71" d="M333.412,168.406c4.748,1.051,9.823,18.118,9.823,18.118L329.81,200.808s-11.146-16.044-8.868-21.938C323.248,172.717,327.75,167.178,333.412,168.406Z" transform="translate(-203.965 -76.59)" fill="#263238"/>
      <path id="Path_72" data-name="Path 72" d="M325.843,176.7c-2.4-2.2-4.025-1.542-5.13.2-1.091,5.075,5.375,15.7,7.981,19.728C329.895,191.832,331.273,181.709,325.843,176.7Z" transform="translate(-203.982 -73.625)" opacity="0.4"/>
      <path id="Path_73" data-name="Path 73" d="M286.274,169.494s-5.457,1.91,5.457,68.966h46.387c-.778-18.882-.8-30.533,8.186-69.307a136.812,136.812,0,0,0-19.714-2.592,146.528,146.528,0,0,0-21.065,0C296.534,167.393,286.274,169.494,286.274,169.494Z" transform="translate(-216.981 -76.968)" fill="#263238"/>
      <path id="Path_74" data-name="Path 74" d="M285.6,189.543c.3,3.261.7,6.931,1.214,11.078,3.806-3.424,6.917-13.166,5.771-18.841A33.55,33.55,0,0,0,285.6,189.543Z" transform="translate(-216.729 -70.826)" opacity="0.4"/>
      <path id="Path_75" data-name="Path 75" d="M305.583,181.177a202.019,202.019,0,0,1-8.445,18.487A113.6,113.6,0,0,1,286.224,217.4l-.873,1.078-.437.532c-.15.177-.273.341-.5.587a16.968,16.968,0,0,1-2.729,2.4,22.238,22.238,0,0,1-5.7,2.838,41.652,41.652,0,0,1-10.915,1.937,80.986,80.986,0,0,1-20.683-1.842l.75-5.73c3.138,0,6.426,0,9.55-.259a76.994,76.994,0,0,0,9.359-1.037,36.836,36.836,0,0,0,8.377-2.347,12.511,12.511,0,0,0,3.015-1.828,6.234,6.234,0,0,0,.941-.982s.164-.218.273-.368l.314-.45.641-.9a135.272,135.272,0,0,0,9.127-16.522c2.729-5.8,5.457-11.815,7.954-17.736Z" transform="translate(-231.746 -72.578)" fill="#803e3c"/>
      <path id="Path_76" data-name="Path 76" d="M289.295,168.716c-5.689,1.364-12.675,16.972-12.675,16.972l11.788,17.327s15.7-19.769,13.834-25.8C300.332,170.926,296.239,167.024,289.295,168.716Z" transform="translate(-220.001 -76.526)" fill="#263238"/>
      <path id="Path_77" data-name="Path 77" d="M250.219,209.723l-9.837-4.543-.982,9.782s8.186,2.415,12.279,0Z" transform="translate(-233.561 -60.73)" fill="#7f3e3b"/>
      <path id="Path_78" data-name="Path 78" d="M236.061,204.46l-.941,7.449,5.839,3.315.982-9.782Z" transform="translate(-235.12 -61.046)" fill="#7f3e3b"/>
      <path id="Path_79" data-name="Path 79" d="M327.755,144.3c-2.087,11.146-2.729,15.922-9.114,20.983-9.55,7.613-22.852,2.619-24.135-8.923-1.173-10.4,2.428-26.877,13.984-30.015A15.458,15.458,0,0,1,327.755,144.3Z" transform="translate(-213.561 -96.872)" fill="#7f3e3b"/>
      <path id="Path_80" data-name="Path 80" d="M302.51,148.413c-.641,5.689-.887,20.465,11.61,20.929,15.294.559,19.878-12.511,18.514-17.736,7.968-6.481,9.114-17.627.164-26.154S304.147,121.686,298.69,130C291.773,140.3,302.51,148.413,302.51,148.413Z" transform="translate(-212.806 -98.636)" fill="#263238"/>
      <path id="Path_81" data-name="Path 81" d="M312.168,129.387c-.737-6-.164-10.137,5.457-10.137s13.288,2.033,16.1,7.777,3.042,14.735-4.8,13.821S313.055,136.563,312.168,129.387Z" transform="translate(-207.143 -99.255)" fill="#2955d8"/>
      <path id="Path_82" data-name="Path 82" d="M318.528,133.28c-1.364-7.149,5.034-27.286,20.574-28.651,7.2-.614,10.533,7.135,6.822,8.418,6.822-.082,11.187,8.936,4.83,10.287,5.021,3.22,3.779,9.823-3.384,13.07C342.035,138.86,320.37,143.185,318.528,133.28Z" transform="translate(-204.798 -104.595)" fill="#263238"/>
      <path id="Path_83" data-name="Path 83" d="M335.106,135.16c-5.007,0-10.232-.737-13.479-2.906a6.671,6.671,0,0,1-3.206-5.184.355.355,0,0,1,.314-.368.327.327,0,0,1,.368.314,6.085,6.085,0,0,0,2.906,4.68c6.18,4.093,20.465,2.729,24.912,1.364,3.847-1.255,6.453-3.7,6.972-6.508a5.648,5.648,0,0,0-2.278-5.457.328.328,0,0,1,0-.478.341.341,0,0,1,.477,0,6.358,6.358,0,0,1,2.524,6.18c-.559,3.07-3.329,5.689-7.422,7.026a44.6,44.6,0,0,1-12.088,1.337Z" transform="translate(-204.772 -98.793)" fill="#263238"/>
      <path id="Path_84" data-name="Path 84" d="M298.736,140.47a8.391,8.391,0,0,0-1.46,6.153c.45,2.865,3.233,3.056,5.253,1.228s3.779-5.13,2.292-7.5a3.575,3.575,0,0,0-6.085.123Z" transform="translate(-212.511 -92.166)" fill="#7f3e3b"/>
      <path id="Path_85" data-name="Path 85" d="M298.89,219.16s6.631,78.435,13.52,122.639c5.553,35.7,9.946,119.16,9.946,119.16h15.581s5.539-80.959,2.729-116.267c-7.135-89.363,8.786-96.648-7.6-125.517Z" transform="translate(-211.887 -41.051)" fill="#2955d8"/>
      <path id="Path_86" data-name="Path 86" d="M317.2,240.89A76.13,76.13,0,0,0,302.48,263.1c1.815,17.627,3.97,37.191,6.262,54.327A150.593,150.593,0,0,0,317.2,240.89Z" transform="translate(-210.579 -43.316)" opacity="0.4"/>
      <path id="Path_87" data-name="Path 87" d="M295.348,218.8s-14.394,85.666-16.658,124.276c5.648,35.7,28.76,111.178,28.76,111.178l14.175-5.143s-7.845-82.3-16.372-104.821c19.2-64.628,33.3-80.972,29.2-125C324.613,219.291,295.348,218.8,295.348,218.8Z" transform="translate(-219.247 -41.182)" fill="#2955d8"/>
      <path id="Path_88" data-name="Path 88" d="M299.032,397.568l19.155-5.2-1.091-7.64-20.506,5.553Z" transform="translate(-212.725 19.27)" fill="#263238"/>
      <path id="Path_89" data-name="Path 89" d="M314.549,398.667H334.4l1.037-6.958-21-.709Z" transform="translate(-206.222 21.554)" fill="#263238"/>
      <path id="Path_90" data-name="Path 90" d="M337.406,217.239l2.087,4.161c.164.327-.218.655-.75.655H290.064c-.409,0-.764-.2-.791-.478l-.423-4.093c0-.286.341-.532.791-.532h47a.859.859,0,0,1,.764.287Z" transform="translate(-215.545 -55.71)" fill="#2955d8"/>
      <path id="Path_91" data-name="Path 91" d="M337.406,217.239l2.087,4.161c.164.327-.218.655-.75.655H290.064c-.409,0-.764-.2-.791-.478l-.423-4.093c0-.286.341-.532.791-.532h47a.859.859,0,0,1,.764.287Z" transform="translate(-215.545 -55.71)" opacity="0.5"/>
      <path id="Path_92" data-name="Path 92" d="M320.1,222.61h1.255c.259,0,.45-.136.437-.287l-.6-5.457c0-.164-.232-.287-.478-.287h-1.269c-.246,0-.437.123-.423.287l.587,5.457C319.634,222.5,319.852,222.61,320.1,222.61Z" transform="translate(-204.554 -55.851)" fill="#2955d8"/>
      <path id="Path_93" data-name="Path 93" d="M313.02,201.118a.709.709,0,0,1-.669-.5c-4.448-16.454-13.643-30.015-18.1-32.061a1.555,1.555,0,0,0-1.16-.191.682.682,0,1,1-.559-1.242,2.728,2.728,0,0,1,2.292.191c4.721,2.237,14.053,15.608,18.718,32.43,3.343,0,8.5-.45,9.755-.559,1.555-1.855,12.988-16.154,8.718-31.8a.668.668,0,0,1,.478-.832.682.682,0,0,1,.832.478c4.761,17.409-9.045,33.112-9.2,33.262a.628.628,0,0,1-.437.232C323.621,200.518,316.813,201.118,313.02,201.118Z" transform="translate(-214.366 -77.318)" fill="#2955d8"/>
      <path id="Path_94" data-name="Path 94" d="M331.7,207.074c-7.436-13.93-10.478-14.912-11.8-19.387a23.193,23.193,0,0,1,4.229-6.822c-.9-.259-2.838-.641-4.093-.873.136-.614.286-1.214.423-1.8a13.015,13.015,0,0,0-4.093.191v-1.364a17.737,17.737,0,0,0-5.28-.341q.232.969.45,1.965c-1.364.259-3.438.682-4.434.969a19.645,19.645,0,0,1,4.161,7.6c-4.011,6.89-19.592,51.176,5.757,54.573S339.126,221.018,331.7,207.074Z" transform="translate(-210.444 -72.403)" fill="#2955d8"/>
      <path id="Path_95" data-name="Path 95" d="M331.7,207.074c-7.436-13.93-10.478-14.912-11.8-19.387a23.193,23.193,0,0,1,4.229-6.822c-.9-.259-2.838-.641-4.093-.873.136-.614.286-1.214.423-1.8a13.015,13.015,0,0,0-4.093.191v-1.364a17.737,17.737,0,0,0-5.28-.341q.232.969.45,1.965c-1.364.259-3.438.682-4.434.969a19.645,19.645,0,0,1,4.161,7.6c-4.011,6.89-19.592,51.176,5.757,54.573S339.126,221.018,331.7,207.074Z" transform="translate(-210.444 -72.403)" fill="#fff" opacity="0.4"/>
      <path id="Path_96" data-name="Path 96" d="M308.316,183.5a8.579,8.579,0,0,0-.2,2.142c0,.5,1.364.846,2.879,1s7.872.4,7.667-.314.314-1.678.341-2.278-2.524-.628-4.666-.546S308.739,182.732,308.316,183.5Z" transform="translate(-208.529 -70.424)" fill="#2955d8"/>
      <path id="Path_97" data-name="Path 97" d="M297.727,222.61h1.255c.246,0,.437-.136.423-.287l-.587-5.457c0-.164-.232-.287-.491-.287h-1.214c-.246,0-.437.123-.423.287l.587,5.457C297.25,222.5,297.468,222.61,297.727,222.61Z" transform="translate(-212.689 -55.851)" fill="#2955d8"/>
    </g>
  </g>
</svg>
